<svg width="200" height="75" viewBox="0 0 200 75" fill="none" xmlns="http://www.w3.org/2000/svg">
<g clip-path="url(#clip0_2516_774)">
<path d="M192.593 0H7.40741C3.31641 0 0 4.19731 0 9.37495V65.6247C0 70.8023 3.31641 74.9996 7.40741 74.9996H192.593C196.684 74.9996 200 70.8023 200 65.6247V9.37495C200 4.19731 196.684 0 192.593 0Z" fill="black"/>
<path d="M192.593 1.49986C194.242 1.50227 195.824 2.33279 196.99 3.80919C198.157 5.2856 198.813 7.28732 198.815 9.3752V65.6249C198.813 67.7128 198.157 69.7145 196.99 71.1909C195.824 72.6673 194.242 73.4978 192.593 73.5003H7.40741C5.7577 73.4979 4.17612 72.6673 3.00963 71.1909C1.84314 69.7145 1.18701 67.7128 1.18519 65.6249V9.3752C1.18698 7.28729 1.8431 5.28555 3.0096 3.80914C4.17609 2.33273 5.7577 1.50223 7.40741 1.49986H192.593ZM192.593 0.000244141H7.40741C5.44461 0.00751554 3.56384 0.997566 2.17593 2.75414C0.788011 4.51071 0.00574533 6.89104 0 9.3752L0 65.6249C0.00574533 68.1091 0.788011 70.4894 2.17593 72.246C3.56384 74.0026 5.44461 74.9926 7.40741 74.9999H192.593C194.555 74.9926 196.436 74.0026 197.824 72.246C199.212 70.4894 199.994 68.1091 200 65.6249V9.3752C199.994 6.89104 199.212 4.51071 197.824 2.75414C196.436 0.997566 194.555 0.00751554 192.593 0.000244141V0.000244141Z" fill="#A6A6A6"/>
<path d="M70.2494 19.206C70.2764 19.8941 70.1924 20.5818 70.0026 21.2274C69.8128 21.8731 69.5212 22.463 69.1454 22.9615C68.7244 23.5141 68.2159 23.9481 67.6532 24.2349C67.0905 24.5217 66.4863 24.655 65.8801 24.6259C65.2701 24.6328 64.6651 24.4853 64.1007 24.1921C63.5364 23.8988 63.024 23.4658 62.5938 22.9184C62.1635 22.3709 61.8241 21.7202 61.5954 21.0044C61.3668 20.2885 61.2535 19.5221 61.2622 18.75C61.2535 17.978 61.3669 17.2115 61.5956 16.4957C61.8243 15.7799 62.1637 15.1291 62.5939 14.5816C63.0241 14.0341 63.5364 13.601 64.1007 13.3076C64.6651 13.0142 65.27 12.8666 65.8801 12.8733C66.5073 12.8709 67.1283 13.0314 67.7046 13.3448C68.2398 13.6194 68.7161 14.0501 69.0949 14.6018L68.3136 15.5914C68.0158 15.1479 67.6416 14.7969 67.2196 14.5655C66.7977 14.334 66.3394 14.2284 65.8801 14.2566C65.4178 14.2536 64.9597 14.3687 64.5333 14.595C64.107 14.8214 63.7211 15.1543 63.3988 15.5738C63.0765 15.9934 62.8244 16.4909 62.6576 17.0367C62.4909 17.5825 62.4129 18.1652 62.4283 18.75C62.4172 19.626 62.612 20.4864 62.9878 21.2222C63.3637 21.9579 63.9037 22.5358 64.5394 22.8825C65.1751 23.2293 65.8778 23.3294 66.5585 23.17C67.2392 23.0106 67.8672 22.599 68.3628 21.9874C68.8189 21.3654 69.0833 20.5566 69.1078 19.7085H65.8801V18.3572H70.1872C70.2279 18.6373 70.2488 18.9213 70.2494 19.206Z" fill="white"/>
<path d="M77.078 14.5075H73.03V18.0743H76.6803V19.4258H73.03V22.9926H77.078V24.375H71.8886V13.1251H77.078V14.5075Z" fill="white"/>
<path d="M81.8943 24.375H80.7514V14.5075H78.2687V13.1251H84.377V14.5075H81.8943V24.375Z" fill="white"/>
<path d="M88.7969 24.375V13.1251H89.9383V24.375H88.7969Z" fill="white"/>
<path d="M95.0049 24.375H93.8619V14.5075H91.3794V13.1251H97.4875V14.5075H95.0049V24.375Z" fill="white"/>
<path d="M109.051 22.9212C108.186 24.0129 107.014 24.6259 105.792 24.6259C104.57 24.6259 103.398 24.0129 102.533 22.9212C102.105 22.3725 101.769 21.7205 101.544 21.0039C101.319 20.2874 101.21 19.5209 101.224 18.75C101.21 17.9792 101.319 17.2127 101.544 16.4962C101.769 15.7796 102.105 15.1276 102.533 14.5789C102.961 14.0376 103.469 13.6083 104.028 13.3156C104.586 13.0229 105.185 12.8726 105.79 12.8733C106.395 12.8739 106.994 13.0256 107.552 13.3195C108.111 13.6135 108.618 14.0439 109.045 14.5863C109.473 15.1335 109.81 15.784 110.036 16.4993C110.262 17.2145 110.372 17.9799 110.36 18.75C110.374 19.5208 110.265 20.2872 110.04 21.0037C109.815 21.7201 109.478 22.3722 109.051 22.9212ZM103.377 21.9792C104.017 22.7888 104.886 23.2435 105.791 23.2435C106.697 23.2435 107.565 22.7888 108.206 21.9792C108.534 21.5534 108.791 21.0477 108.961 20.4927C109.131 19.9377 109.21 19.3449 109.194 18.75C109.21 18.1552 109.131 17.5624 108.961 17.0074C108.791 16.4524 108.534 15.9467 108.206 15.5209C107.565 14.7113 106.697 14.2566 105.791 14.2566C104.886 14.2566 104.017 14.7113 103.377 15.5209C103.048 15.9471 102.792 16.4528 102.622 17.0078C102.453 17.5627 102.374 18.1554 102.39 18.75C102.374 19.3447 102.453 19.9374 102.622 20.4923C102.792 21.0473 103.048 21.553 103.377 21.9792Z" fill="white"/>
<path d="M111.963 24.375V13.1251H113.353L117.673 21.8766H117.723L117.673 19.7085V13.1251H118.816V24.375H117.624L113.105 15.1996H113.055L113.105 17.3676V24.375H111.963Z" fill="white"/>
<path d="M70.2494 19.206C70.2764 19.8941 70.1924 20.5818 70.0026 21.2274C69.8128 21.8731 69.5212 22.463 69.1454 22.9615C68.7244 23.5141 68.2159 23.9481 67.6532 24.2349C67.0905 24.5217 66.4863 24.655 65.8801 24.6259C65.2701 24.6328 64.6651 24.4853 64.1007 24.1921C63.5364 23.8988 63.024 23.4658 62.5938 22.9184C62.1635 22.3709 61.8241 21.7202 61.5954 21.0044C61.3668 20.2885 61.2535 19.5221 61.2622 18.75C61.2535 17.978 61.3669 17.2115 61.5956 16.4957C61.8243 15.7799 62.1637 15.1291 62.5939 14.5816C63.0241 14.0341 63.5364 13.601 64.1007 13.3076C64.6651 13.0142 65.27 12.8666 65.8801 12.8733C66.5073 12.8709 67.1283 13.0314 67.7046 13.3448C68.2398 13.6194 68.7161 14.0501 69.0949 14.6018L68.3136 15.5914C68.0158 15.1479 67.6416 14.7969 67.2196 14.5655C66.7977 14.334 66.3394 14.2284 65.8801 14.2566C65.4178 14.2536 64.9597 14.3687 64.5333 14.595C64.107 14.8214 63.7211 15.1543 63.3988 15.5738C63.0765 15.9934 62.8244 16.4909 62.6576 17.0367C62.4909 17.5825 62.4129 18.1652 62.4283 18.75C62.4172 19.626 62.612 20.4864 62.9878 21.2222C63.3637 21.9579 63.9037 22.5358 64.5394 22.8825C65.1751 23.2293 65.8778 23.3294 66.5585 23.17C67.2392 23.0106 67.8672 22.599 68.3628 21.9874C68.8189 21.3654 69.0833 20.5566 69.1078 19.7085H65.8801V18.3572H70.1872C70.2279 18.6373 70.2488 18.9213 70.2494 19.206Z" stroke="white" stroke-width="0.2" stroke-miterlimit="10"/>
<path d="M77.078 14.5075H73.03V18.0743H76.6803V19.4258H73.03V22.9926H77.078V24.375H71.8886V13.1251H77.078V14.5075Z" stroke="white" stroke-width="0.2" stroke-miterlimit="10"/>
<path d="M81.8943 24.375H80.7514V14.5075H78.2687V13.1251H84.377V14.5075H81.8943V24.375Z" stroke="white" stroke-width="0.2" stroke-miterlimit="10"/>
<path d="M88.7969 24.375V13.1251H89.9383V24.375H88.7969Z" stroke="white" stroke-width="0.2" stroke-miterlimit="10"/>
<path d="M95.0049 24.375H93.8619V14.5075H91.3794V13.1251H97.4875V14.5075H95.0049V24.375Z" stroke="white" stroke-width="0.2" stroke-miterlimit="10"/>
<path d="M109.051 22.9212C108.186 24.0129 107.014 24.6259 105.792 24.6259C104.57 24.6259 103.398 24.0129 102.533 22.9212C102.105 22.3725 101.769 21.7205 101.544 21.0039C101.319 20.2874 101.21 19.5209 101.224 18.75C101.21 17.9792 101.319 17.2127 101.544 16.4962C101.769 15.7796 102.105 15.1276 102.533 14.5789C102.961 14.0376 103.469 13.6083 104.028 13.3156C104.586 13.0229 105.185 12.8726 105.79 12.8733C106.395 12.8739 106.994 13.0256 107.552 13.3195C108.111 13.6135 108.618 14.0439 109.045 14.5863C109.473 15.1335 109.81 15.784 110.036 16.4993C110.262 17.2145 110.372 17.9799 110.36 18.75C110.374 19.5208 110.265 20.2872 110.04 21.0037C109.815 21.7201 109.478 22.3722 109.051 22.9212ZM103.377 21.9792C104.017 22.7888 104.886 23.2435 105.791 23.2435C106.697 23.2435 107.565 22.7888 108.206 21.9792C108.534 21.5534 108.791 21.0477 108.961 20.4927C109.131 19.9377 109.21 19.3449 109.194 18.75C109.21 18.1552 109.131 17.5624 108.961 17.0074C108.791 16.4524 108.534 15.9467 108.206 15.5209C107.565 14.7113 106.697 14.2566 105.791 14.2566C104.886 14.2566 104.017 14.7113 103.377 15.5209C103.048 15.9471 102.792 16.4528 102.622 17.0078C102.453 17.5627 102.374 18.1554 102.39 18.75C102.374 19.3447 102.453 19.9374 102.622 20.4923C102.792 21.0473 103.048 21.553 103.377 21.9792Z" stroke="white" stroke-width="0.2" stroke-miterlimit="10"/>
<path d="M111.963 24.375V13.1251H113.353L117.673 21.8766H117.723L117.673 19.7085V13.1251H118.816V24.375H117.624L113.105 15.1996H113.055L113.105 17.3676V24.375H111.963Z" stroke="white" stroke-width="0.2" stroke-miterlimit="10"/>
<path d="M100.942 40.7841C99.6969 40.7901 98.481 41.2629 97.4479 42.1428C96.4149 43.0227 95.611 44.2702 95.1377 45.7279C94.6645 47.1857 94.5431 48.7881 94.7889 50.3331C95.0348 51.878 95.6368 53.2961 96.5189 54.4084C97.4011 55.5206 98.5239 56.2772 99.7455 56.5824C100.967 56.8876 102.233 56.7279 103.383 56.1235C104.533 55.519 105.515 54.4968 106.207 53.186C106.898 51.8752 107.267 50.3346 107.267 48.7587C107.279 47.7046 107.124 46.6581 106.81 45.6816C106.496 44.7051 106.03 43.8185 105.44 43.0745C104.85 42.3305 104.148 41.7443 103.375 41.3508C102.602 40.9574 101.775 40.7646 100.942 40.7841V40.7841ZM100.942 53.5918C100.175 53.661 99.4096 53.4364 98.7451 52.9472C98.0805 52.4581 97.5477 51.727 97.216 50.8492C96.8843 49.9714 96.7691 48.9876 96.8854 48.0258C97.0017 47.064 97.3441 46.1688 97.868 45.4567C98.3919 44.7446 99.0731 44.2487 99.8229 44.0335C100.573 43.8182 101.356 43.8937 102.072 44.2499C102.787 44.6062 103.401 45.2268 103.834 46.031C104.267 46.8352 104.498 47.7857 104.498 48.7587C104.521 49.3734 104.447 49.9877 104.28 50.5656C104.113 51.1435 103.856 51.6732 103.525 52.1236C103.193 52.574 102.794 52.9359 102.351 53.188C101.907 53.4402 101.428 53.5775 100.942 53.5918V53.5918ZM87.1444 40.7841C85.8992 40.7901 84.6833 41.2628 83.6502 42.1427C82.6172 43.0226 81.8132 44.2701 81.34 45.7278C80.8667 47.1855 80.7453 48.788 80.9911 50.333C81.2369 51.8779 81.8389 53.2961 82.7211 54.4083C83.6033 55.5206 84.726 56.2771 85.9477 56.5824C87.1693 56.8877 88.435 56.728 89.585 56.1235C90.7349 55.519 91.7176 54.4968 92.4089 53.186C93.1002 51.8753 93.4692 50.3346 93.4692 48.7587C93.4814 47.7046 93.326 46.6582 93.0122 45.6817C92.6983 44.7052 92.2325 43.8186 91.6425 43.0745C91.0524 42.3305 90.3501 41.7444 89.5773 41.3509C88.8046 40.9574 87.9772 40.7647 87.1444 40.7841V40.7841ZM87.1444 53.5918C86.3776 53.661 85.612 53.4364 84.9474 52.9472C84.2829 52.4581 83.75 51.727 83.4184 50.8492C83.0867 49.9714 82.9715 48.9876 83.0878 48.0258C83.2041 47.064 83.5465 46.1688 84.0704 45.4567C84.5943 44.7446 85.2755 44.2487 86.0252 44.0335C86.775 43.8182 87.5586 43.8937 88.274 44.2499C88.9894 44.6062 89.6035 45.2268 90.0363 46.031C90.4691 46.8352 90.7005 47.7857 90.7006 48.7587C90.7239 49.3734 90.6497 49.9877 90.4826 50.5656C90.3154 51.1435 90.0586 51.6733 89.7272 52.1236C89.3958 52.574 88.9966 52.9359 88.553 53.1881C88.1095 53.4402 87.6305 53.5775 87.1444 53.5918ZM70.7314 43.231V46.614H77.128C77.0357 48.2009 76.5226 49.7017 75.672 50.8733C75.031 51.7002 74.2601 52.3479 73.4091 52.7745C72.5581 53.2011 71.6459 53.3972 70.7314 53.3501C68.8617 53.3181 67.0772 52.3556 65.764 50.671C64.4508 48.9863 63.7146 46.715 63.7146 44.3485C63.7146 41.982 64.4508 39.7107 65.764 38.026C67.0772 36.3414 68.8617 35.3789 70.7314 35.3468C72.5272 35.3171 74.2598 36.1855 75.5527 37.7633L77.4382 35.377C76.5561 34.2717 75.5084 33.4005 74.3568 32.8143C73.2051 32.2282 71.9725 31.939 70.7314 31.9636C69.4343 31.9397 68.1465 32.2424 66.9427 32.8541C65.7389 33.4657 64.6432 34.3742 63.7192 35.5266C62.7953 36.679 62.0617 38.0524 61.5609 39.5669C61.0601 41.0814 60.8022 42.7067 60.8022 44.3485C60.8022 45.9902 61.0601 47.6156 61.5609 49.1301C62.0617 50.6446 62.7953 52.018 63.7192 53.1704C64.6432 54.3228 65.7389 55.2312 66.9427 55.8429C68.1465 56.4546 69.4343 56.7573 70.7314 56.7334C71.9987 56.7999 73.2628 56.5246 74.4396 55.9256C75.6165 55.3267 76.6793 54.418 77.5575 53.2596C79.1166 51.1057 79.9476 48.265 79.8727 45.3454C79.8788 44.6364 79.8308 43.9283 79.7293 43.231H70.7314ZM137.855 45.8588C137.476 44.4144 136.755 43.1525 135.79 42.2446C134.825 41.3367 133.663 40.8268 132.461 40.7841C131.651 40.7905 130.851 41.0045 130.109 41.4134C129.366 41.8222 128.697 42.4173 128.142 43.1627C127.586 43.9081 127.156 44.7883 126.877 45.7501C126.598 46.712 126.476 47.7354 126.518 48.7587C126.5 49.8071 126.649 50.8495 126.956 51.8235C127.263 52.7974 127.722 53.6831 128.306 54.4274C128.889 55.1718 129.586 55.7597 130.353 56.1558C131.12 56.552 131.943 56.7485 132.771 56.7334C133.809 56.7406 134.832 56.4215 135.749 55.8047C136.665 55.1878 137.446 54.2925 138.022 53.1992L135.874 51.3868C135.552 52.0632 135.097 52.6221 134.553 53.0086C134.009 53.3952 133.395 53.5962 132.771 53.5918C132.129 53.6229 131.495 53.4091 130.95 52.9782C130.405 52.5473 129.975 51.9192 129.716 51.1753L138.141 46.7652L137.855 45.8588ZM129.263 48.5172C129.233 47.9367 129.295 47.3547 129.445 46.805C129.595 46.2553 129.831 45.7491 130.138 45.3159C130.444 44.8827 130.816 44.5313 131.231 44.2822C131.647 44.0332 132.097 43.8914 132.556 43.8653C133.034 43.8255 133.511 43.9647 133.927 44.2655C134.343 44.5663 134.68 45.0155 134.895 45.5569L129.263 48.5172ZM122.413 56.25H125.181V32.8096H122.413V56.25ZM117.878 42.5663H117.782C117.361 41.9875 116.848 41.5291 116.276 41.2218C115.703 40.9144 115.086 40.7652 114.465 40.7841C112.84 40.8716 111.305 41.7501 110.18 43.236C109.054 44.722 108.426 46.7006 108.426 48.7587C108.426 50.8169 109.054 52.7955 110.18 54.2815C111.305 55.7674 112.84 56.6458 114.465 56.7334C115.089 56.7544 115.708 56.6031 116.281 56.2901C116.854 55.9771 117.367 55.5099 117.782 54.921H117.878V56.0689C117.878 59.1199 116.589 60.7509 114.512 60.7509C113.82 60.7299 113.149 60.4487 112.584 59.943C112.018 59.4373 111.585 58.7301 111.338 57.9114L108.928 59.1802C109.382 60.5802 110.156 61.7766 111.151 62.6162C112.146 63.4557 113.317 63.9001 114.512 63.8925C117.758 63.8925 120.503 61.476 120.503 55.5855V41.2673H117.878V42.5663ZM114.704 53.5918C113.747 53.4891 112.855 52.9355 112.205 52.0404C111.555 51.1454 111.195 49.9742 111.195 48.7587C111.195 47.5433 111.555 46.3721 112.205 45.4771C112.855 44.582 113.747 44.0284 114.704 43.9257C115.18 43.9551 115.646 44.1055 116.075 44.368C116.504 44.6305 116.887 44.9996 117.202 45.4535C117.516 45.9073 117.754 46.4365 117.903 47.0095C118.052 47.5826 118.108 48.1877 118.069 48.7888C118.106 49.3863 118.048 49.9871 117.897 50.5553C117.747 51.1235 117.507 51.6475 117.193 52.0959C116.879 52.5443 116.496 52.9079 116.069 53.1649C115.641 53.4219 115.177 53.5671 114.704 53.5918V53.5918ZM150.824 32.81H144.2V56.25H146.964V47.3693H150.824C151.605 47.4235 152.388 47.2755 153.123 46.9341C153.858 46.5928 154.53 46.0654 155.099 45.3841C155.668 44.7028 156.121 43.8819 156.43 42.9716C156.74 42.0613 156.899 41.0807 156.899 40.0896C156.899 39.0986 156.74 38.118 156.43 37.2077C156.121 36.2974 155.668 35.4765 155.099 34.7952C154.53 34.1139 153.858 33.5865 153.123 33.2451C152.388 32.9038 151.605 32.7557 150.824 32.81V32.81ZM150.895 44.1072H146.964V36.0723H150.895C151.317 36.0612 151.737 36.1569 152.13 36.3538C152.523 36.5508 152.881 36.8449 153.182 37.2191C153.484 37.5932 153.724 38.0398 153.888 38.5328C154.051 39.0257 154.136 39.555 154.136 40.0897C154.136 40.6244 154.051 41.1537 153.888 41.6467C153.724 42.1396 153.484 42.5862 153.182 42.9604C152.881 43.3345 152.523 43.6287 152.13 43.8256C151.737 44.0225 151.317 44.1183 150.895 44.1072V44.1072ZM167.979 40.741C166.97 40.6665 165.966 40.9663 165.09 41.6038C164.214 42.2413 163.503 43.1886 163.047 44.3295L165.501 45.6263C165.744 45.06 166.113 44.5958 166.561 44.2905C167.01 43.9852 167.519 43.852 168.026 43.9073C168.728 43.8207 169.427 44.0894 169.972 44.6547C170.517 45.22 170.863 46.0356 170.933 46.9228V47.1642C170.046 46.5673 169.056 46.2566 168.05 46.2595C165.406 46.2595 162.713 48.099 162.713 51.5368C162.739 52.2613 162.879 52.9719 163.126 53.6264C163.373 54.281 163.721 54.8661 164.15 55.347C164.579 55.828 165.08 56.195 165.623 56.4263C166.166 56.6575 166.74 56.7484 167.312 56.6934C168.008 56.7453 168.702 56.56 169.322 56.1569C169.942 55.7539 170.466 55.1477 170.838 54.4016H170.933V56.211H173.602V47.2245C173.602 43.063 171.148 40.741 167.979 40.741V40.741ZM167.645 53.5873C166.74 53.5873 165.477 53.0145 165.477 51.597C165.477 49.7878 167.05 49.0941 168.408 49.0941C169.29 49.0644 170.162 49.3352 170.933 49.8782C170.832 50.8949 170.443 51.8307 169.839 52.5125C169.234 53.1944 168.455 53.5762 167.645 53.5873V53.5873ZM183.324 41.2536L180.154 51.4161H180.059L176.771 41.2536H173.793L178.725 55.4571L175.913 63.3579H178.796L186.397 41.2536H183.324ZM158.424 56.25H161.188V32.81H158.424V56.25Z" fill="white"/>
<path d="M15.4596 14.1339C14.9738 14.8691 14.7285 15.8115 14.7739 16.7681V58.2356C14.7283 59.1922 14.9737 60.1347 15.4596 60.8698L15.5692 61.0049L33.9233 37.7759V37.2278L15.5692 13.9978L15.4596 14.1339Z" fill="url(#paint0_linear_2516_774)"/>
<path d="M40.041 45.5223L33.9233 37.7759V37.2279L40.0424 29.4834L40.1804 29.583L47.429 34.7956C49.4995 36.2844 49.4995 38.7204 47.429 40.21L40.1804 45.4227L40.041 45.5223Z" fill="url(#paint1_linear_2516_774)"/>
<path d="M40.1802 45.4217L33.9232 37.502L15.4595 60.8698C15.8814 61.3407 16.4201 61.61 16.9824 61.631C17.5447 61.652 18.095 61.4235 18.5381 60.9849L40.1802 45.4217Z" fill="url(#paint2_linear_2516_774)"/>
<path d="M40.1802 29.582L18.5381 14.0188C18.095 13.5802 17.5447 13.3516 16.9824 13.3727C16.4201 13.3937 15.8814 13.663 15.4595 14.1339L33.9232 37.5019L40.1802 29.582Z" fill="url(#paint3_linear_2516_774)"/>
<path opacity="0.2" d="M40.0423 45.2473L18.5381 60.7109C18.1121 61.1214 17.5921 61.3454 17.0566 61.349C16.5212 61.3526 15.9993 61.1357 15.5698 60.731L15.4595 60.8707L15.5691 61.0059L15.5698 61.0049C15.9993 61.4099 16.5211 61.6269 17.0566 61.6233C17.5921 61.6197 18.1122 61.3956 18.5381 60.9849L40.1802 45.4217L40.0423 45.2473Z" fill="black"/>
<path opacity="0.12" d="M15.4595 60.5968C14.9738 59.8617 14.7285 58.9193 14.7739 57.9626V58.2366C14.7285 59.1932 14.9738 60.1356 15.4595 60.8708L15.5699 60.7311L15.4595 60.5968Z" fill="black"/>
<path opacity="0.12" d="M47.429 39.9351L40.0425 45.2473L40.1804 45.4217L47.429 40.209C47.8554 39.9749 48.2244 39.6003 48.4975 39.1243C48.7707 38.6483 48.938 38.0883 48.982 37.5027C48.8904 38.033 48.7023 38.529 48.4327 38.9513C48.1631 39.3735 47.8194 39.7104 47.429 39.9351V39.9351Z" fill="black"/>
<path opacity="0.25" d="M18.5382 14.2938L47.4289 35.0687C47.8195 35.2934 48.1633 35.6304 48.4329 36.0528C48.7025 36.4752 48.8905 36.9715 48.9819 37.502C48.9382 36.9162 48.771 36.3559 48.4978 35.8797C48.2246 35.4035 47.8555 35.0288 47.4289 34.7947L18.5382 14.0198C16.4677 12.5309 14.7739 13.7676 14.7739 16.7691V17.0431C14.7739 14.0418 16.4677 12.805 18.5382 14.2938Z" fill="white"/>
</g>
<defs>
<linearGradient id="paint0_linear_2516_774" x1="32.2956" y1="16.3309" x2="1.68206" y2="40.5195" gradientUnits="userSpaceOnUse">
<stop stop-color="#00A0FF"/>
<stop offset="0.00657" stop-color="#00A1FF"/>
<stop offset="0.2601" stop-color="#00BEFF"/>
<stop offset="0.5122" stop-color="#00D2FF"/>
<stop offset="0.7604" stop-color="#00DFFF"/>
<stop offset="1" stop-color="#00E3FF"/>
</linearGradient>
<linearGradient id="paint1_linear_2516_774" x1="50.1248" y1="37.5028" x2="14.2775" y2="37.5028" gradientUnits="userSpaceOnUse">
<stop stop-color="#FFE000"/>
<stop offset="0.4087" stop-color="#FFBD00"/>
<stop offset="0.7754" stop-color="#FFA500"/>
<stop offset="1" stop-color="#FF9C00"/>
</linearGradient>
<linearGradient id="paint2_linear_2516_774" x1="36.7803" y1="41.8052" x2="-4.73414" y2="74.6069" gradientUnits="userSpaceOnUse">
<stop stop-color="#FF3A44"/>
<stop offset="1" stop-color="#C31162"/>
</linearGradient>
<linearGradient id="paint3_linear_2516_774" x1="10.8105" y1="0.330571" x2="29.3484" y2="14.9779" gradientUnits="userSpaceOnUse">
<stop stop-color="#32A071"/>
<stop offset="0.0685" stop-color="#2DA771"/>
<stop offset="0.4762" stop-color="#15CF74"/>
<stop offset="0.8009" stop-color="#06E775"/>
<stop offset="1" stop-color="#00F076"/>
</linearGradient>
<clipPath id="clip0_2516_774">
<rect width="200" height="75" fill="white"/>
</clipPath>
</defs>
</svg>
